<svg height="512pt" viewBox="0 0 512.21824 512" width="512pt" xmlns="http://www.w3.org/2000/svg"><path d="m481.453125 172.15625c16.40625-.167969 29.855469-13.0625 30.71875-29.445312.449219-7.671876-2.390625-15.167969-7.808594-20.617188-3.722656-3.652344-8.449219-6.109375-13.574219-7.058594-.957031-5.125-3.414062-9.855468-7.058593-13.585937-5.449219-5.410157-12.949219-8.246094-20.617188-7.796875-7.671875.367187-14.925781 3.605468-20.324219 9.070312-8.316406 8.160156-11.148437 20.398438-7.273437 31.386719l-11.023437 11.023437c-8.703126.804688-17.113282 3.570313-24.59375 8.089844-3.300782 1.808594-6.527344 3.761719-9.753907 5.707032-4.171875 2.5625-8.234375 4.960937-12.355469 7.023437 1.511719-4.445313 2.917969-8.832031 4.035157-12.96875 4.515625-14.347656 5.464843-29.578125 2.765625-44.375-1.570313-7.59375-4.152344-14.9375-7.679688-21.84375l7.296875-15.105469c.179688 0 .359375.042969.535157.042969 11.488281-.210937 21.855468-6.933594 26.738281-17.332031 7.378906-14.199219 1.871093-31.691406-12.316407-39.097656-4.730468-2.207032-10.011718-2.964844-15.171874-2.175782-2.582032-4.511718-6.441407-8.160156-11.09375-10.488281-14.625-6.488281-31.746094.089844-38.261719 14.703125-5.160157 10.441406-3.800781 22.929688 3.488281 32.015625l-6.738281 13.988281c-7.992188 3.617188-15.050781 9.015625-20.628907 15.785156-2.558593 2.816407-4.921874 5.726563-7.3125 8.636719-5.265624 7.152344-11.597656 13.457031-18.773437 18.695313-10.621094 6.207031-22.0625 10.894531-33.988281 13.917968l-2.71875.855469c-55.222656 16.929688-63.804688 44.628907-59.660156 66.984375-9.9375 6.316406-19.078126 13.808594-27.21875 22.316406-26.515626 27.75-40.671876 67.941407-40.671876 113.738282h-.953124c-.402344 0-.796876.050781-1.195313.0625-3.519531-13.878906-15.347656-24.074219-29.59375-25.5-14.246094-1.429688-27.863281 6.210937-34.066406 19.117187-3.816407-1.453125-7.863281-2.203125-11.945313-2.210937-12.039062-.113282-23.226562 6.183594-29.378906 16.53125-6.152344 10.34375-6.335938 23.183594-.488281 33.703125-7.417969 5.894531-12.023438 14.628906-12.7031252 24.078125-.6796878 9.449218 2.6328122 18.75 9.1289062 25.644531-8.285156 6.871094-11.359375 18.203125-7.6875 28.316406 3.671875 10.117188 13.300781 16.835938 24.0625 16.792969h.683594c4.234375 29.363281 29.382812 51.164062 59.046875 51.199219h341.335937c29.667969-.035157 54.8125-21.835938 59.050782-51.199219h.683593c10.714844.042969 20.316407-6.621094 24.023438-16.675781 3.703125-10.058594.722656-21.359375-7.460938-28.277344 8.621094-11.765625 11.253907-26.882813 7.121094-40.875-4.132813-13.988281-14.558594-25.246094-28.191406-30.4375-.304688-8.507813-1.3125-16.976563-3.011719-25.320313-5.914062-27-18.203125-52.191406-35.839844-73.472656 13.789063-18.140625 19.859375-40.996094 16.894532-63.589844l11.777343-11.773437c3.117188 1.171875 6.414063 1.78125 9.746094 1.796875zm-26.632813-57.367188c2.390626-2.449218 5.617188-3.90625 9.035157-4.089843 2.878906-.1875 5.703125.835937 7.792969 2.828125 2.152343 2.25 3.144531 5.371094 2.6875 8.453125.003906.339843.027343.679687.074218 1.015625-.046875.332031-.070312.664062-.074218 1 0 .238281.167968.433594.210937.664062.121094.550782.296875 1.082032.523437 1.597656.351563.992188.9375 1.890626 1.707032 2.609376.390625.429687.832031.808593 1.3125 1.136718.421875.273438.871094.503906 1.339844.691406.546874.246094 1.117187.433594 1.707031.554688.238281.042969.425781.1875.671875.222656.328125-.011718.652344-.042968.972656-.085937.34375.050781.6875.078125 1.035156.085937 2.972656-.507812 6.015625.398438 8.230469 2.449219 2.210937 2.050781 3.347656 5.015625 3.066406 8.019531-.175781 3.425782-1.636719 6.65625-4.085937 9.054688-4.050782 4.507812-10.777344 5.402344-15.863282 2.105468-.230468-.167968-.496093-.203124-.734374-.347656-.597657-.386718-1.246094-.691406-1.921876-.914062-.402343-.113282-.8125-.191406-1.226562-.238282-.636719-.105468-1.277344-.140624-1.921875-.101562-.46875.050781-.933594.144531-1.390625.273438-.566406.128906-1.121094.320312-1.644531.570312-.765625.503906-1.527344 1.011719-2.289063 1.519531l-9.8125 9.839844c-1.617187-3.242187-3.675781-6.246094-6.117187-8.917969-1.5-1.558594-3.148438-2.972656-4.917969-4.214844l8.789062-8.792968c.214844-.269532.40625-.554688.582032-.851563.363281-.433593.675781-.90625.9375-1.40625.25-.53125.441406-1.085937.574218-1.65625.128907-.453125.21875-.914062.269532-1.382812.039062-.640625.003906-1.285157-.101563-1.921875-.046875-.417969-.125-.832032-.238281-1.234375-.214844-.679688-.511719-1.328125-.886719-1.929688-.144531-.238281-.179687-.503906-.351562-.734375-3.304688-5.078125-2.433594-11.804687 2.058593-15.871094zm-104.832031-90.0625c2.507813-6.042968 9.34375-9.023437 15.480469-6.75 2.773438 1.425782 4.738281 4.046876 5.324219 7.109376.117187.3125.253906.617187.410156.914062.058594.332031.140625.660156.246094.980469.109375.222656.308593.351562.433593.5625.300782.488281.648438.941406 1.042969 1.355469.351563.40625.738281.773437 1.160157 1.101562.429687.3125.890624.582031 1.375.804688.484374.25.996093.449218 1.527343.597656.5.121094 1.011719.195312 1.527344.21875.585937.050781 1.179687.035156 1.765625-.042969.226562.015625.453125.015625.683594 0 .3125-.117187.617187-.253906.910156-.40625.332031-.0625.65625-.144531.972656-.25 2.769532-1.449219 6.046875-1.542969 8.894532-.253906 5.597656 3.378906 7.523437 10.582031 4.359374 16.304687-2.339843 5.59375-8.398437 8.660156-14.292968 7.230469-.257813-.085937-.503906 0-.761719-.085937-.699219-.171876-1.417969-.253907-2.140625-.238282-.425781.027344-.847656.089844-1.261719.175782-.628906.109374-1.242187.292968-1.828125.539062-.429687.207031-.84375.445312-1.234375.71875-.488281.308594-.941406.667969-1.351562 1.074219-.398438.421875-.75.882812-1.046875 1.382812-.222656.257813-.429688.527344-.617188.808594l-6.046875 12.535156c-2.613281-2.527343-5.546875-4.695312-8.730469-6.449219-1.914062-.96875-3.914062-1.753906-5.972656-2.347656l5.359375-11.136718c.101563-.316407.183594-.636719.246094-.964844.433594-1.082032.585937-2.253906.445313-3.410156-.03125-.496094-.101563-.988282-.214844-1.46875-.171875-.59375-.414063-1.167969-.71875-1.707032-.183594-.386718-.398438-.757812-.636719-1.109375-.441406-.570312-.953125-1.085937-1.519531-1.527343-.207032-.164063-.316406-.394532-.539063-.546876-4.816406-3.71875-6.195312-10.394531-3.25-15.71875zm-97.035156 112.777344 2.714844-.851562c13.480469-3.449219 26.394531-8.824219 38.339843-15.957032 8.632813-6.148437 16.25-13.609374 22.570313-22.113281 2.230469-2.730469 4.472656-5.453125 6.828125-8.097656 4.128906-5.472656 9.761719-9.621094 16.214844-11.945313 3.136718-.792968 6.464844-.339843 9.273437 1.269532 2.566407 1.414062 4.875 3.25 6.828125 5.4375 1.429688 1.574218 2.699219 3.292968 3.789063 5.121094.144531.332031.3125.65625.503906.972656 3.746094 6.394531 6.382813 13.375 7.804687 20.648437 2.179688 12.199219 1.316407 24.746094-2.507812 36.53125-2.238281 7.96875-4.921875 15.804688-8.027344 23.476563-8.367187.789062-16.78125.929687-25.167968.425781-41.980469-13.617187-87.519532-11.183594-127.8125 6.828125-.101563-11.742188 7.066406-28.996094 48.648437-41.746094zm-167.628906 178.210938c6.996093.011718 13.261719 4.320312 15.78125 10.84375-9.488281 2.34375-18.433594 6.480468-26.359375 12.195312-1.304688-3.828125-3.296875-7.386718-5.878906-10.496094 1.972656-7.453124 8.75-12.617187 16.457031-12.542968zm-42.664063 17.066406c4.261719.015625 8.359375 1.628906 11.492188 4.515625 3.570312 3.191406 5.597656 7.761719 5.574218 12.550781l-.078124 1.5c-.085938.757813-.238282 1.507813-.453126 2.238282-3.019531 3.824218-5.671874 7.925781-7.917968 12.253906-.117188.21875-.222656.441406-.316406.671875-5.449219 10.699219-8.292969 22.53125-8.300782 34.535156v8.535156h-8.535156c-8.230469-.027343-15.273438-5.929687-16.738281-14.03125-1.464844-8.101562 3.0625-16.09375 10.765625-19.003906.078125 0 .128906-.09375.214844-.125.429687-.214844.839843-.464844 1.226562-.753906.601562-.328125 1.160156-.726563 1.664062-1.183594.078126-.078125.179688-.101563.257813-.1875.234375-.320313.4375-.660156.613281-1.015625.367188-.480469.679688-1 .929688-1.546875.179687-.503906.3125-1.027344.394531-1.558594.128906-.53125.210937-1.070312.238281-1.613281-.03125-.597656-.117187-1.1875-.265625-1.769531-.03125-.398438-.09375-.792969-.1875-1.183594 0-.113281-.128906-.179687-.171875-.28125-.234375-.515625-.519531-1.003906-.851562-1.460937-.28125-.484376-.613282-.9375-.988282-1.355469-.085937-.085938-.113281-.195313-.199218-.273438-3.488282-3.171875-5.464844-7.675781-5.433594-12.390625 0-9.425781 7.640625-17.066406 17.066406-17.066406zm384 162.132812h-341.335937c-2.722657-.023437-5.4375-.308593-8.105469-.851562-.851562-.171875-1.707031-.460938-2.515625-.683594-1.738281-.421875-3.449219-.949218-5.121094-1.578125-.9375-.375-1.824219-.855469-2.730469-1.28125-1.445312-.683593-2.855468-1.445312-4.214843-2.285156-.855469-.566406-1.707031-1.164063-2.5625-1.785156-1.253907-.921875-2.457031-1.914063-3.597657-2.96875-.769531-.699219-1.519531-1.417969-2.230468-2.175781-1.070313-1.164063-2.078125-2.382813-3.019532-3.652344-.597656-.8125-1.226562-1.597656-1.765624-2.441406-.910157-1.457032-1.734376-2.96875-2.464844-4.523438-.386719-.792969-.855469-1.542969-1.171875-2.363281-.941407-2.300781-1.683594-4.679688-2.210938-7.109375 0-.152344-.101562-.289063-.132812-.441406h424.992187c-4.074218 19.855468-21.542968 34.117187-41.8125 34.140624zm59.734375-51.199218h-460.800781c-4.714844 0-8.535156-3.820313-8.535156-8.535156 0-4.710938 3.820312-8.53125 8.535156-8.53125h460.800781c4.710938 0 8.53125 3.820312 8.53125 8.53125 0 4.714843-3.820312 8.535156-8.53125 8.535156zm8.53125-55.46875c-.007812 8.09375-3.375 15.816406-9.292969 21.335937h-16.144531c6.382813-14.738281 10.390625-30.390625 11.878907-46.378906 8.492187 5.492187 13.601562 14.929687 13.558593 25.042969zm-30.035156-42.410156c.574219 22.089843-4.296875 43.984374-14.183594 63.746093h-390.980469v-8.535156c.039063-32.972656 26.757813-59.695313 59.734376-59.734375h1.59375c.652343 9.167969 1.855468 18.285156 3.601562 27.308594.8125 3.972656 4.308594 6.828125 8.363281 6.828125.574219 0 1.144531-.054688 1.707031-.171875 2.21875-.449219 4.167969-1.765625 5.417969-3.652344 1.25-1.890625 1.699219-4.199219 1.246094-6.417969-2.183594-10.8125-3.496094-21.78125-3.933594-32.800781-1.785156-44.851562 11.015625-83.953125 35.957031-110.132812 26.328126-27.273438 62.839844-42.328126 100.738282-41.53125-4.636719 2.230468-8.90625 5.15625-12.65625 8.679687-9.53125 9.480469-14.628906 22.542969-14.035156 35.976563-.75 27.714843 7.289062 54.957031 22.96875 77.824218 11.421874 17.273438 30.699218 27.71875 51.40625 27.851563h1.253906c42.417968-.792969 85.597656-41.472657 109.449218-71.226563 14.496094 18.414063 24.621094 39.878906 29.617188 62.777344 1.566406 7.648438 2.480469 15.410156 2.734375 23.210938zm-22.019531-142.761719c-1.929688 12.234375-6.875 23.796875-14.386719 33.648437-20.144531 29.5-66.679687 76.550782-105.710937 77.285156h-.910157c-15.296875-.179687-29.472656-8.050781-37.710937-20.941406-13.507813-19.925781-20.375-43.609375-19.625-67.667968-.558594-8.78125 2.636718-17.382813 8.789062-23.671876 8.6875-8.347656 24.027344-12.570312 45.660156-12.570312 2.289063 0 4.660157.050781 7.082032.144531l2.375.09375c.773437 0 1.558594.042969 2.328125.078125h.238281.1875c13.113281 1.039063 26.304688.195313 39.175781-2.507812 10.171875-2.992188 19.820313-7.527344 28.613281-13.449219 3.011719-1.820313 6.042969-3.652344 9.140626-5.359375 16.851562-9.257812 23.234374-6.253906 27.613281-1.628906 1.960937 2.125 3.519531 4.597656 4.589843 7.285156 3.28125 9.386719 4.160157 19.449219 2.550782 29.261719zm0 0"/><path d="m190.226562 224.347656c-1.152343 1.144532-28.101562 28.816406-28.101562 91.367188 0 4.710937 3.820312 8.53125 8.535156 8.53125 4.710938 0 8.53125-3.820313 8.53125-8.53125 0-54.554688 22.605469-78.78125 23.136719-79.359375 3.222656-3.359375 3.164063-8.683594-.136719-11.964844-3.300781-3.28125-8.625-3.3125-11.964844-.070313zm0 0"/><path d="m170.660156 341.3125c-4.714844 0-8.535156 3.820312-8.535156 8.535156v8.535156c0 4.710938 3.820312 8.53125 8.535156 8.53125 4.710938 0 8.53125-3.820312 8.53125-8.53125v-8.535156c0-4.714844-3.820312-8.535156-8.53125-8.535156zm0 0"/></svg>