<?xml version="1.0" encoding="iso-8859-1"?>
<!-- Generator: Adobe Illustrator 19.0.0, SVG Export Plug-In . SVG Version: 6.00 Build 0)  -->
<svg version="1.1" id="Capa_1" xmlns="http://www.w3.org/2000/svg" xmlns:xlink="http://www.w3.org/1999/xlink" x="0px" y="0px"
	 viewBox="0 0 512.001 512.001" style="enable-background:new 0 0 512.001 512.001;" xml:space="preserve">
<g>
	<g>
		<path d="M448.491,398.671c-0.919-1.378-2.068-2.634-3.468-3.684c-10.487-7.866-16.502-19.895-16.502-33.004
			c0-13.109,6.015-25.138,16.502-33.004c5.166-3.874,7.273-10.619,5.231-16.745s-7.775-10.258-14.232-10.258h-90.494
			c6.987-9.214,11.757-19.773,14.002-31.004h1.484c33.088,0,60.007-26.919,60.007-60.007c0-33.088-26.919-60.007-60.007-60.007
			c-6.813,0-188.228,0-195.023,0c-8.285,0-15.002,6.717-15.002,15.002v90.011c0,16.766,5.454,32.776,15.485,46.005H90.981
			c-33.088,0-60.007,26.919-60.007,60.007c0,23.191,13.233,43.336,32.536,53.322c0.919,1.378,2.068,2.634,3.468,3.684
			c10.487,7.866,16.502,19.895,16.502,33.004c0,13.109-6.015,25.138-16.502,33.004c-5.166,3.874-7.273,10.619-5.231,16.745
			c2.042,6.126,7.775,10.258,14.232,10.258H421.02c33.088,0,60.007-26.919,60.007-60.007
			C481.027,428.803,467.795,408.657,448.491,398.671z M361.013,180.961c16.544,0,30.004,13.46,30.004,30.004
			c0,16.544-13.46,30.004-30.004,30.004V180.961z M361.013,331.879h44.05c-4.271,9.229-6.546,19.513-6.546,30.104
			c0,10.591,2.273,20.773,6.547,30.004h-44.051V331.879z M180.991,180.961h150.018v75.009c0,24.938-20.609,46.005-45.005,46.005
			h-60.007c-24.396,0-45.005-21.068-45.005-46.005V180.961z M331.009,331.978v68.795l-4.395-4.395
			c-5.858-5.859-15.357-5.859-21.216,0l-4.393,4.395v-68.795H331.009z M60.977,361.983c0-16.544,13.46-30.004,30.004-30.004
			c15.283,0,155.79,0,180.021,0v60.007H90.981C74.437,391.986,60.977,378.527,60.977,361.983z M421.021,481.997H106.938
			c4.273-9.229,6.546-19.413,6.546-30.004c0-10.591-2.273-20.773-6.547-30.004h164.066v15.002c0,6.068,3.655,11.537,9.261,13.86
			c5.605,2.322,12.059,1.039,16.349-3.251l19.396-19.396l19.396,19.396c4.289,4.29,10.742,5.573,16.348,3.251
			c5.606-2.322,9.261-7.792,9.261-13.86V421.99h60.007c16.544,0,30.004,13.46,30.004,30.004
			C451.025,468.537,437.565,481.997,421.021,481.997z"/>
	</g>
</g>
<g>
	<g>
		<path d="M188.386,74.926c15.287-7.553,24.414-21.268,24.414-36.685s-9.126-29.132-24.414-36.685
			c-7.429-3.67-16.425-0.624-20.095,6.804c-3.669,7.428-0.624,16.425,6.805,20.095c4.895,2.418,7.701,5.985,7.701,9.786
			s-2.806,7.37-7.701,9.787c-15.288,7.553-24.414,20.893-24.414,35.686c0,14.793,9.127,28.132,24.414,35.685
			c7.458,3.683,16.439,0.595,20.095-6.805c3.669-7.428,0.624-16.425-6.805-20.095c-4.823-2.382-7.701-5.667-7.701-8.786
			S183.564,77.31,188.386,74.926z"/>
	</g>
</g>
<g>
	<g>
		<path d="M263.395,74.926c15.287-7.553,24.414-21.268,24.414-36.685s-9.127-29.132-24.414-36.685
			c-7.429-3.67-16.424-0.624-20.095,6.804c-3.669,7.428-0.624,16.425,6.805,20.095c4.894,2.418,7.701,5.985,7.701,9.786
			s-2.807,7.37-7.701,9.787c-15.288,7.553-24.414,20.893-24.414,35.686c0,14.793,9.127,28.132,24.414,35.685
			c7.457,3.683,16.439,0.595,20.095-6.805c3.669-7.428,0.624-16.425-6.805-20.095c-4.823-2.382-7.701-5.667-7.701-8.786
			S258.573,77.31,263.395,74.926z"/>
	</g>
</g>
<g>
	<g>
		<path d="M338.404,74.927c15.287-7.553,24.414-21.268,24.414-36.685S353.691,9.11,338.404,1.557
			c-7.428-3.67-16.425-0.623-20.095,6.804c-3.67,7.428-0.623,16.425,6.805,20.095c4.895,2.418,7.701,5.985,7.701,9.786
			s-2.807,7.369-7.701,9.786C309.827,55.581,300.7,68.922,300.7,83.713c0,14.792,9.127,28.132,24.414,35.685
			c7.457,3.685,16.44,0.594,20.095-6.804c3.67-7.428,0.623-16.425-6.805-20.095c-4.822-2.382-7.701-5.668-7.701-8.786
			C330.703,80.595,333.583,77.31,338.404,74.927z"/>
	</g>
</g>
<g>
</g>
<g>
</g>
<g>
</g>
<g>
</g>
<g>
</g>
<g>
</g>
<g>
</g>
<g>
</g>
<g>
</g>
<g>
</g>
<g>
</g>
<g>
</g>
<g>
</g>
<g>
</g>
<g>
</g>
</svg>
